#N canvas 0 0 450 375 10;
#X obj 135 11 inlet;
#X obj 309 248 f \$2;
#X obj 353 292 pack f f f;
#X obj 333 219 unpack f f;
#X obj 353 313 outlet;
#X obj 58 221 change;
#X obj 149 133 t l l;
#X obj 59 200 unpack f f;
#X obj 118 221 change;
#X obj 184 304 l;
#X obj 97 270 t b;
#X obj 184 325 t b l;
#X obj 250 28 inlet;
#X obj 241 82 unpack f f f;
#X obj 283 138 pack f f;
#X obj 274 176 l;
#X obj 233 117 sel \$1;
#X obj 330 27 inlet;
#X connect 0 0 13 0;
#X connect 1 0 2 0;
#X connect 2 0 4 0;
#X connect 3 0 2 1;
#X connect 3 1 2 2;
#X connect 5 0 10 0;
#X connect 6 0 7 0;
#X connect 6 1 9 1;
#X connect 7 0 5 0;
#X connect 7 1 8 0;
#X connect 8 0 10 0;
#X connect 9 0 11 0;
#X connect 10 0 9 0;
#X connect 11 0 1 0;
#X connect 11 1 3 0;
#X connect 12 0 16 1;
#X connect 13 0 16 0;
#X connect 13 1 14 0;
#X connect 13 2 14 1;
#X connect 14 0 15 1;
#X connect 15 0 6 0;
#X connect 16 0 15 0;
#X connect 17 0 1 1;
