#N canvas 369 39 867 440 10;
#X obj 445 30 symbol \$1;
#X obj 448 -7 loadbang;
#X obj 409 7 bng 15 250 50 0 empty empty empty 17 7 0 10 -262144 -1
-1;
#X msg 447 52 \$1;
#X obj 530 275 cord_router;
#X msg 463 124 1;
#X msg 463 208 2;
#X obj 436 275 cord_router;
#X obj 633 279 cord_router;
#X msg 460 165 5;
#X obj 490 86 route H P D L;
#X msg 497 123 2;
#X msg 497 210 3;
#X msg 498 165 6;
#X msg 533 124 3;
#X msg 567 123 4;
#X msg 533 208 4;
#X msg 567 210 1;
#X msg 530 165 7;
#X msg 568 165 8;
#X msg 610 165 5;
#X obj 640 86 route H P D L;
#X msg 648 165 6;
#X msg 680 165 7;
#X msg 718 165 8;
#X obj 648 -7 loadbang;
#X obj 609 7 bng 15 250 50 0 empty empty empty 17 7 0 10 -262144 -1
-1;
#X msg 647 52 \$1;
#X obj 645 30 symbol \$2;
#X obj 375 117 inlet;
#X obj 525 316 outlet;
#X msg 613 124 2;
#X msg 614 209 1;
#X msg 647 123 3;
#X msg 647 210 2;
#X msg 683 124 4;
#X msg 683 208 3;
#X msg 717 123 1;
#X msg 717 210 4;
#X obj 109 303 cord_router;
#X msg 42 152 1;
#X msg 42 236 2;
#X obj 15 303 cord_router;
#X obj 212 307 cord_router;
#X msg 39 193 5;
#X obj 69 114 route H P D L;
#X msg 76 151 2;
#X msg 76 238 3;
#X msg 77 193 6;
#X msg 112 152 3;
#X msg 146 151 4;
#X msg 112 236 4;
#X msg 146 238 1;
#X msg 109 193 7;
#X msg 147 193 8;
#X msg 189 193 5;
#X obj 219 114 route H P D L;
#X msg 227 193 6;
#X msg 259 193 7;
#X msg 297 193 8;
#X obj 419 141 inlet;
#X obj 10 346 outlet;
#X msg 192 152 2;
#X msg 193 237 1;
#X msg 226 151 3;
#X msg 226 238 2;
#X msg 262 152 4;
#X msg 262 236 3;
#X msg 296 151 1;
#X msg 296 238 4;
#X connect 0 0 3 0;
#X connect 1 0 0 0;
#X connect 2 0 0 0;
#X connect 3 0 10 0;
#X connect 3 0 56 0;
#X connect 4 0 30 0;
#X connect 5 0 7 1;
#X connect 6 0 8 1;
#X connect 7 0 30 0;
#X connect 8 0 30 0;
#X connect 9 0 4 1;
#X connect 10 0 5 0;
#X connect 10 0 6 0;
#X connect 10 0 9 0;
#X connect 10 1 11 0;
#X connect 10 1 12 0;
#X connect 10 1 13 0;
#X connect 10 2 14 0;
#X connect 10 2 16 0;
#X connect 10 2 18 0;
#X connect 10 3 15 0;
#X connect 10 3 17 0;
#X connect 10 3 19 0;
#X connect 11 0 7 1;
#X connect 12 0 8 1;
#X connect 13 0 4 1;
#X connect 14 0 7 1;
#X connect 15 0 7 1;
#X connect 16 0 8 1;
#X connect 17 0 8 1;
#X connect 18 0 4 1;
#X connect 19 0 4 1;
#X connect 20 0 4 2;
#X connect 21 0 31 0;
#X connect 21 0 32 0;
#X connect 21 0 20 0;
#X connect 21 1 33 0;
#X connect 21 1 34 0;
#X connect 21 1 22 0;
#X connect 21 2 35 0;
#X connect 21 2 36 0;
#X connect 21 2 23 0;
#X connect 21 3 37 0;
#X connect 21 3 38 0;
#X connect 21 3 24 0;
#X connect 22 0 4 2;
#X connect 23 0 4 2;
#X connect 24 0 4 2;
#X connect 25 0 28 0;
#X connect 26 0 28 0;
#X connect 27 0 21 0;
#X connect 27 0 45 0;
#X connect 28 0 27 0;
#X connect 29 0 4 0;
#X connect 29 0 7 0;
#X connect 29 0 8 0;
#X connect 31 0 7 2;
#X connect 32 0 8 2;
#X connect 33 0 7 2;
#X connect 34 0 8 2;
#X connect 35 0 7 2;
#X connect 36 0 8 2;
#X connect 37 0 7 2;
#X connect 38 0 8 2;
#X connect 39 0 61 0;
#X connect 40 0 42 1;
#X connect 41 0 43 1;
#X connect 42 0 61 0;
#X connect 43 0 61 0;
#X connect 44 0 39 1;
#X connect 45 0 40 0;
#X connect 45 0 41 0;
#X connect 45 0 44 0;
#X connect 45 1 46 0;
#X connect 45 1 47 0;
#X connect 45 1 48 0;
#X connect 45 2 49 0;
#X connect 45 2 51 0;
#X connect 45 2 53 0;
#X connect 45 3 50 0;
#X connect 45 3 52 0;
#X connect 45 3 54 0;
#X connect 46 0 42 1;
#X connect 47 0 43 1;
#X connect 48 0 39 1;
#X connect 49 0 42 1;
#X connect 50 0 42 1;
#X connect 51 0 43 1;
#X connect 52 0 43 1;
#X connect 53 0 39 1;
#X connect 54 0 39 1;
#X connect 55 0 39 2;
#X connect 56 0 62 0;
#X connect 56 0 63 0;
#X connect 56 0 55 0;
#X connect 56 1 64 0;
#X connect 56 1 65 0;
#X connect 56 1 57 0;
#X connect 56 2 66 0;
#X connect 56 2 67 0;
#X connect 56 2 58 0;
#X connect 56 3 68 0;
#X connect 56 3 69 0;
#X connect 56 3 59 0;
#X connect 57 0 39 2;
#X connect 58 0 39 2;
#X connect 59 0 39 2;
#X connect 60 0 39 0;
#X connect 60 0 42 0;
#X connect 60 0 43 0;
#X connect 62 0 42 2;
#X connect 63 0 43 2;
#X connect 64 0 42 2;
#X connect 65 0 43 2;
#X connect 66 0 42 2;
#X connect 67 0 43 2;
#X connect 68 0 42 2;
#X connect 69 0 43 2;
