#N canvas 752 142 1086 798 10;
#X obj 45 3 inlet;
#X obj 634 74 unpack f f;
#X obj 615 96 translateXYZ;
#X msg 633 134 draw line;
#X obj 69 446 sel 1;
#X obj 175 626 s select;
#X obj 174 604 f \$0;
#X obj 25 246 sel \$0;
#X obj 25 221 r select;
#X obj 33 325 s \$0-sel;
#X obj 418 -1 r \$0-sel;
#X msg 64 284 0;
#X msg 22 282 1;
#X obj 633 115 loadbang;
#X obj 184 566 spigot 0;
#X obj 475 2 r vertex_switch;
#X obj 83 250 r reset;
#N canvas 770 339 450 300 stred 0;
#X obj 139 167 stred_bodov;
#X obj 213 215 stred_bodov;
#X obj 144 248 stred_bodov;
#X obj 143 277 outlet;
#X obj 137 137 r LH-\$0;
#X obj 200 131 r PD-\$0;
#X obj 214 187 r PH-\$0;
#X obj 282 178 r LD-\$0;
#X connect 0 0 2 0;
#X connect 1 0 2 1;
#X connect 2 0 3 0;
#X connect 4 0 0 0;
#X connect 5 0 0 1;
#X connect 6 0 1 0;
#X connect 7 0 1 1;
#X restore 334 452 pd stred;
#X obj 58 531 &&;
#X obj 54 398 r gmouse;
#X obj 61 589 relativier;
#X obj 477 20 t b f;
#X obj 90 541 r \$0-sel;
#X msg 46 45 reset;
#X msg 152 649 rel_mov \$1 \$2;
#X msg 446 70 sel \$1;
#X obj 315 81 r \$0-vert_set;
#X obj 315 105 t a;
#X obj 45 67 s \$0-vert_set;
#X obj 59 671 s \$0-vert_set;
#X obj 64 614 route bang;
#X msg 60 642 rel_mov bang;
#X obj 144 47 curve3d 3 3;
#N canvas 509 245 865 420 curveset_main 0;
#X msg 678 223 draw line;
#X obj 647 179 loadbang;
#X obj 500 69 r \$0-sel;
#X obj 568 53 r vertex_switch;
#X msg 87 232 set 0 0 \$1 \$2 0;
#X msg 389 289 \$1 \$2 0;
#X msg 392 261 \$1 \$2 0;
#X msg 398 235 \$1 \$2 0;
#X msg 407 211 \$1 \$2 0;
#X msg 54 96 set 0 2 \$1 \$2 0;
#X msg 64 144 set 2 2 \$1 \$2 0;
#X msg 74 190 set 2 0 \$1 \$2 0;
#X obj 572 76 t b f;
#X obj 554 99 && 1;
#X msg 267 255 set 0 1 \$1 \$2 0;
#X msg 226 117 set 1 2 \$1 \$2 0;
#X msg 239 164 set 2 1 \$1 \$2 0;
#X msg 255 202 set 1 0 \$1 \$2 0;
#X msg 207 354 set 1 1 \$1 \$2 0;
#X msg 415 186 \$1 \$2 0;
#X msg 418 158 \$1 \$2 0;
#X msg 424 132 \$1 \$2 0;
#X msg 432 107 \$1 \$2 0;
#X obj 521 119 tgl 15 0 empty empty empty 17 7 0 10 #fcfcfc #000000 #000000 0 1;
#X obj 390 344 curve 3;
#X obj 450 345 curve 3;
#X obj 508 346 curve 3;
#X obj 562 347 curve 3;
#X obj 55 379 outlet;
#X obj 55 75 r LH-\$0;
#X obj 64 121 r PH-\$0;
#X obj 73 167 r PD-\$0;
#X obj 88 210 r LD-\$0;
#X obj 225 94 r H-\$0;
#X obj 239 143 r P-\$0;
#X obj 253 183 r D-\$0;
#X obj 267 231 r L-\$0;
#X obj 206 335 r C-\$0;
#X obj 676 96 r skeleton;
#X obj 559 143 ||;
#X obj 595 112 t b f;
#X obj 559 223 t a;
#X obj 570 196 ortho;
#X msg 647 199 compat 0;
#X obj 559 163 gemhead -9;
#X connect 1 0 0 0;
#X connect 1 0 43 0;
#X connect 2 0 13 0;
#X connect 3 0 12 0;
#X connect 4 0 28 0;
#X connect 5 0 24 1;
#X connect 5 0 27 3;
#X connect 6 0 24 2;
#X connect 7 0 24 3;
#X connect 7 0 25 1;
#X connect 8 0 25 2;
#X connect 9 0 28 0;
#X connect 10 0 28 0;
#X connect 11 0 28 0;
#X connect 12 0 13 0;
#X connect 12 1 13 1;
#X connect 13 0 23 0;
#X connect 13 0 39 0;
#X connect 14 0 28 0;
#X connect 15 0 28 0;
#X connect 16 0 28 0;
#X connect 17 0 28 0;
#X connect 18 0 28 0;
#X connect 19 0 25 3;
#X connect 19 0 26 1;
#X connect 20 0 26 2;
#X connect 21 0 26 3;
#X connect 21 0 27 1;
#X connect 22 0 27 2;
#X connect 29 0 9 0;
#X connect 29 0 5 0;
#X connect 30 0 10 0;
#X connect 30 0 7 0;
#X connect 31 0 11 0;
#X connect 31 0 19 0;
#X connect 32 0 4 0;
#X connect 32 0 21 0;
#X connect 33 0 15 0;
#X connect 33 0 6 0;
#X connect 34 0 16 0;
#X connect 34 0 8 0;
#X connect 35 0 17 0;
#X connect 35 0 20 0;
#X connect 36 0 14 0;
#X connect 36 0 22 0;
#X connect 37 0 18 0;
#X connect 38 0 40 0;
#X connect 39 0 44 0;
#X connect 40 0 39 0;
#X connect 40 1 39 1;
#X connect 41 0 24 0;
#X connect 41 0 25 0;
#X connect 41 0 26 0;
#X connect 41 0 27 0;
#X connect 42 0 41 0;
#X connect 43 0 42 0;
#X connect 44 0 41 0;
#X restore 157 23 pd curveset_main;
#X obj 424 336 stred_bodov;
#X msg 422 403 set \$1 \$2;
#X obj 678 272 r \$0-vert_set;
#X obj 658 400 t a;
#X obj 559 333 stred_bodov;
#X msg 564 396 set \$1 \$2;
#X obj 696 322 stred_bodov;
#X msg 700 398 set \$1 \$2;
#X obj 845 309 stred_bodov;
#X msg 847 381 set \$1 \$2;
#X obj 54 419 route b3;
#X obj 430 512 r \$0-vert_set;
#X obj 448 90 s \$0-vert_set;
#X obj 59 565 && 0;
#X obj 84 230 loadbang;
#X obj 154 119 r \$0-sel;
#X obj 135 200 bng 15 250 50 0 empty empty empty 17 7 0 10 #000000 #000000 #fcfcfc;
#X msg 154 176 color \$1;
#X obj 154 137 sel 0 1;
#X obj 442 48 && 1;
#X msg 335 477 set \$1 \$2;
#X obj 336 497 spigot 1;
#X obj 301 244 == 0;
#X obj 338 269 tgl 15 0 empty empty empty 17 7 0 10 #fcfcfc #000000 #000000 0 1;
#X obj 378 292 &&;
#X obj 378 245 r \$0-sel;
#X obj 396 318 tgl 15 0 empty empty empty 17 7 0 10 #fcfcfc #000000 #000000 0 1;
#X obj 615 153 circle 0.08;
#X obj 30 585 tgl 15 0 empty empty empty 17 7 0 10 #fcfcfc #000000 #000000 0 1;
#X obj 430 534 route sel;
#X msg 509 611 lock \$1;
#X obj 509 590 == 0;
#X obj 509 569 r \$0-sel;
#X msg 493 550 sel \$1;
#X obj 493 531 r vertex_switch;
#X obj 509 637 t a;
#X obj 378 267 t b f;
#X obj 46 23 route reset sel;
#X obj 144 75 outlet;
#N canvas 115 246 966 524 save 0;
#X obj 135 416 t b l;
#X obj 135 386 list;
#N canvas 254 150 893 679 save 0;
#X msg 42 214 write \$1;
#X msg 342 162 read \$1;
#N canvas 289 235 339 244 stokage 0;
#X obj 115 140 list append;
#X obj 115 180 outlet;
#X obj 115 33 inlet;
#X obj 178 33 inlet;
#X obj 115 93 1;
#X connect 0 0 1 0;
#X connect 2 0 4 0;
#X connect 3 0 0 1;
#X connect 4 0 0 0;
#X restore 119 43 pd stokage;
#X obj 42 -51 inlet;
#X obj 176 15 inlet;
#X obj 42 -24 t b b;
#X obj 294 423 unpack f f f f f f f f f f f f f f f f f f;
#X obj 248 693 r C-i-\$1;
#X msg 577 587 set \$1 \$2;
#X obj 577 566 pack f f;
#X msg 63 568 set \$1 \$2;
#X obj 63 547 pack f f;
#X msg 131 570 set \$1 \$2;
#X obj 131 549 pack f f;
#X msg 198 572 set \$1 \$2;
#X obj 198 551 pack f f;
#X msg 273 575 set \$1 \$2;
#X obj 273 554 pack f f;
#X msg 346 573 set \$1 \$2;
#X obj 346 552 pack f f;
#X msg 434 583 set \$1 \$2;
#X obj 434 562 pack f f;
#X msg 502 585 set \$1 \$2;
#X obj 502 564 pack f f;
#X msg 650 590 set \$1 \$2;
#X obj 650 569 pack f f;
#X obj 345 598 s H-i-\$0;
#X obj 290 -12 r load_positions;
#X obj 290 36 symbol \$1;
#X obj 42 65 symbol \$1;
#X obj 290 71 t b s b;
#X obj 261 16 bng 15 250 50 0 empty empty empty 17 7 0 10 #fcfcfc #000000 #000000;
#X obj 336 117 makefilename position/pos-%s.txt;
#X obj 38 174 makefilename position/pos-%s.txt;
#X obj 675 396 inlet;
#X obj 675 417 route 1 2 3 4 5 6 7 8 9;
#X obj 64 590 s LH-i-\$0;
#X obj 131 592 s PH-i-\$0;
#X obj 198 593 s PD-i-\$0;
#X obj 272 596 s LD-i-\$0;
#X obj 436 606 s P-i-\$0;
#X obj 504 606 s D-i-\$0;
#X obj 577 608 s L-i-\$0;
#X obj 650 611 s C-i-\$0;
#X obj 354 401 unpack f f f f f f f f f f f f f f f f f f;
#X obj 292 368 t b l l;
#X obj 638 188 f;
#X obj 601 191 f;
#X obj 609 159 t b b;
#X obj 40 271 print map_rectangle;
#X obj 292 205 t a;
#X obj 287 141 delay 10;
#X obj 290 11 delay 100;
#X obj 293 334 textfile, f 11;
#X obj 292 228 route bang;
#X msg 279 254 rewind \, bang;
#X obj 143 74 list;
#X obj 330 300 t a;
#X obj 387 246 print textin;
#X obj 374 361 print textout;
#X obj 155 106 list prepend set;
#X obj 155 129 route list;
#X connect 0 0 49 0;
#X connect 0 0 50 0;
#X connect 1 0 49 0;
#X connect 1 0 50 0;
#X connect 3 0 5 0;
#X connect 4 0 2 1;
#X connect 4 0 56 1;
#X connect 5 0 29 0;
#X connect 5 1 2 0;
#X connect 5 1 56 0;
#X connect 6 0 11 0;
#X connect 6 1 11 1;
#X connect 6 2 13 0;
#X connect 6 3 13 1;
#X connect 6 4 15 0;
#X connect 6 5 15 1;
#X connect 6 6 17 0;
#X connect 6 7 17 1;
#X connect 8 0 42 0;
#X connect 9 0 8 0;
#X connect 10 0 36 0;
#X connect 11 0 10 0;
#X connect 12 0 37 0;
#X connect 13 0 12 0;
#X connect 14 0 38 0;
#X connect 15 0 14 0;
#X connect 16 0 39 0;
#X connect 17 0 16 0;
#X connect 18 0 26 0;
#X connect 19 0 18 0;
#X connect 20 0 40 0;
#X connect 21 0 20 0;
#X connect 22 0 41 0;
#X connect 23 0 22 0;
#X connect 24 0 43 0;
#X connect 25 0 24 0;
#X connect 27 0 52 0;
#X connect 28 0 30 0;
#X connect 29 0 33 0;
#X connect 30 0 51 0;
#X connect 30 1 32 0;
#X connect 31 0 28 0;
#X connect 32 0 1 0;
#X connect 33 0 0 0;
#X connect 34 0 35 0;
#X connect 35 0 10 0;
#X connect 35 1 12 0;
#X connect 35 2 14 0;
#X connect 35 3 16 0;
#X connect 35 4 18 0;
#X connect 35 5 20 0;
#X connect 35 6 22 0;
#X connect 35 7 8 0;
#X connect 35 8 24 0;
#X connect 44 8 19 0;
#X connect 44 9 19 1;
#X connect 44 10 21 0;
#X connect 44 11 21 1;
#X connect 44 12 23 0;
#X connect 44 13 23 1;
#X connect 44 14 9 0;
#X connect 44 15 9 1;
#X connect 44 16 47 1;
#X connect 44 17 46 1;
#X connect 45 0 48 0;
#X connect 45 1 44 0;
#X connect 45 2 6 0;
#X connect 46 0 25 1;
#X connect 47 0 25 0;
#X connect 48 0 47 0;
#X connect 48 1 46 0;
#X connect 50 0 54 0;
#X connect 51 0 50 0;
#X connect 52 0 28 0;
#X connect 53 0 45 0;
#X connect 54 0 55 0;
#X connect 54 1 57 0;
#X connect 55 0 57 0;
#X connect 56 0 60 0;
#X connect 57 0 53 0;
#X connect 60 0 61 0;
#X connect 61 0 50 0;
#X restore 135 441 pd save;
#X obj 248 416 r reset;
#X obj 603 103 unpack f f;
#X obj 156 335 pack f f f f f f f f f f f f f f f f f f;
#X obj 34 335 r save_positions;
#X text 449 426 http://www.yamatierea.org/papatchs;
#X text 449 414 based on tunning made by Olivier Baudu.;
#X obj 436 49 r H-\$0;
#X obj 156 95 unpack f f;
#X obj 254 105 unpack f f;
#X obj 324 106 unpack f f;
#X obj 394 105 unpack f f;
#X obj 461 103 unpack f f;
#X obj 531 103 unpack f f;
#X obj 671 103 unpack f f;
#X obj 741 103 unpack f f;
#X obj 73 158 inlet;
#X msg 507 320 1 \$1 \$2;
#X msg 547 300 2 \$1 \$2;
#X msg 587 280 3 \$1 \$2;
#X msg 627 260 4 \$1 \$2;
#X msg 667 240 5 \$1 \$2;
#X msg 707 220 6 \$1 \$2;
#X msg 747 200 7 \$1 \$2;
#X msg 787 180 8 \$1 \$2;
#X msg 827 160 9 \$1 \$2;
#X obj 126 38 r LH-\$0;
#X obj 226 49 r PH-\$0;
#X obj 366 49 r LD-\$0;
#X obj 506 49 r P-\$0;
#X obj 576 47 r D-\$0;
#X obj 646 49 r L-\$0;
#X obj 716 48 r C-\$0;
#X obj 296 49 r PD-\$0;
#X obj 126 59 t l l;
#X obj 227 69 t b l l;
#X obj 297 70 t b l l;
#X obj 367 69 t b l l;
#X obj 434 67 t b l l;
#X obj 504 67 t b l l;
#X obj 576 67 t b l l;
#X obj 644 67 t b l l;
#X obj 714 67 t b l l;
#X obj 747 453 outlet;
#X obj 744 393 list prepend \$1;
#X obj 744 416 route list;
#X connect 0 0 2 0;
#X connect 0 1 2 1;
#X connect 1 0 0 0;
#X connect 4 0 5 12;
#X connect 4 1 5 13;
#X connect 5 0 1 1;
#X connect 6 0 1 0;
#X connect 9 0 40 0;
#X connect 10 0 5 0;
#X connect 10 1 5 1;
#X connect 11 0 5 2;
#X connect 11 1 5 3;
#X connect 12 0 5 4;
#X connect 12 1 5 5;
#X connect 13 0 5 6;
#X connect 13 1 5 7;
#X connect 14 0 5 8;
#X connect 14 1 5 9;
#X connect 15 0 5 10;
#X connect 15 1 5 11;
#X connect 16 0 5 14;
#X connect 16 1 5 15;
#X connect 17 0 5 16;
#X connect 17 1 5 17;
#X connect 18 0 2 2;
#X connect 19 0 46 0;
#X connect 20 0 46 0;
#X connect 21 0 46 0;
#X connect 22 0 46 0;
#X connect 23 0 46 0;
#X connect 24 0 46 0;
#X connect 25 0 46 0;
#X connect 26 0 46 0;
#X connect 27 0 46 0;
#X connect 28 0 36 0;
#X connect 29 0 37 0;
#X connect 30 0 39 0;
#X connect 31 0 41 0;
#X connect 32 0 42 0;
#X connect 33 0 43 0;
#X connect 34 0 44 0;
#X connect 35 0 38 0;
#X connect 36 0 19 0;
#X connect 36 1 10 0;
#X connect 37 0 5 0;
#X connect 37 1 20 0;
#X connect 37 2 11 0;
#X connect 38 0 5 0;
#X connect 38 1 21 0;
#X connect 38 2 12 0;
#X connect 39 0 5 0;
#X connect 39 1 22 0;
#X connect 39 2 13 0;
#X connect 40 0 5 0;
#X connect 40 1 23 0;
#X connect 40 2 14 0;
#X connect 41 0 5 0;
#X connect 41 1 24 0;
#X connect 41 2 15 0;
#X connect 42 0 5 0;
#X connect 42 1 25 0;
#X connect 42 2 4 0;
#X connect 43 0 5 0;
#X connect 43 1 26 0;
#X connect 43 2 16 0;
#X connect 44 0 5 0;
#X connect 44 1 27 0;
#X connect 44 2 17 0;
#X connect 46 0 47 0;
#X connect 47 0 45 0;
#X restore 293 44 pd save;
#X obj 197 504 tgl 15 0 empty empty empty 17 7 0 10 #fcfcfc #000000 #000000 0 1;
#X obj 293 63 outlet;
#X text 220 48 <<<<;
#X msg 182 157 22;
#X msg 154 157 0;
#X obj 219 274 r \$0-sel;
#X obj 219 294 == 0;
#X obj 181 323 spigot 0;
#X obj 181 343 sel 1;
#X obj 236 133 r LH-i-\$0;
#X obj 338 153 r PH-i-\$0;
#X obj 431 153 r PD-i-\$0;
#X obj 550 152 r LD-i-\$0;
#X obj 422 313 r LH-\$0;
#X obj 489 314 r LD-\$0;
#X obj 561 308 r LH-\$0;
#X obj 625 311 r PH-\$0;
#X obj 236 201 s LH-\$0;
#X obj 333 209 s PH-\$0;
#X obj 429 206 s PD-\$0;
#X obj 546 209 s LD-\$0;
#X obj 582 425 r H-i-\$0;
#X obj 759 303 r PD-\$0;
#X obj 906 283 r LD-\$0;
#X obj 915 381 r D-i-\$0;
#X obj 755 370 r P-i-\$0;
#X obj 502 402 r L-i-\$0;
#X obj 421 598 r C-i-\$0;
#X obj 421 661 s C-\$0;
#X obj 634 56 r C-\$0;
#X obj 696 303 r PH-\$0;
#X obj 844 280 r PD-\$0;
#X obj 423 455 s L-\$0;
#X obj 567 484 s H-\$0;
#X obj 704 453 s P-\$0;
#X obj 847 450 s D-\$0;
#X floatatom 209 105 5 0 0 0 - - - 0;
#X msg 181 363 1;
#X text 691 704 created by Jakub Pisek 2011 \, kubriel@gmail.com;
#X obj 623 38 ortho;
#X obj 700 9 loadbang;
#X msg 700 29 compat 0;
#X obj 615 4 gemhead -3;
#X obj 413 290 tgl 15 0 empty empty empty 17 7 0 10 #fcfcfc #000000 #000000 0 1;
#X msg 236 230 1;
#X text 261 230 ?;
#X obj 276 602 gemhead -15;
#X obj 232 758 text3d;
#X msg 314 667 text \$1;
#X obj 255 555 loadbang;
#X msg 255 575 0;
#X obj 314 640 symbol \$1;
#X obj 356 593 bng 15 250 50 0 empty empty empty 17 7 0 10 #fcfcfc #000000 #000000;
#X floatatom 326 762 5 0 0 0 - - - 0;
#X obj 289 733 translateXYZ;
#X obj 390 697 unpack f f;
#X msg 410 755 justify left;
#X msg 234 713 3;
#X obj 349 708 + 0.15;
#X obj 450 721 + 0.04;
#X obj 300 531 &&;
#X obj 287 503 t b f;
#X obj 479 272 route bang;
#X msg 479 292 0;
#X obj 479 252 r moveall;
#X msg 259 621 font vera.ttf;
#X obj 293 3 inlet;
#X obj 293 23 t b a b;
#X obj 347 325 f;
#X msg 358 44 1;
#X obj 298 704 ortho;
#X msg 528 698 compat 0;
#X obj 235 170 vertex -1 1;
#X obj 703 430 vertex 1 0;
#X obj 423 429 vertex -1 0;
#X obj 333 179 vertex 1 1;
#X obj 421 640 vertex 0 0;
#X obj 543 177 vertex -1 -1;
#X obj 429 174 vertex 1 -1;
#X obj 569 458 vertex 0 1;
#X obj 849 426 vertex 0 -1;
#X msg 388 389 0;
#X obj 375 424 tgl 15 0 empty empty empty 17 7 0 10 #fcfcfc #000000 #000000 0 1;
#X obj 285 328 t b a;
#X obj 331 374 t b a;
#X obj 331 409 tgl 15 0 empty empty empty 17 7 0 10 #fcfcfc #000000 #000000 0 1;
#X obj 896 123 r rovnanie_stredov;
#X obj 424 379 spigot 1;
#X obj 560 373 spigot 1;
#X obj 699 375 spigot 1;
#X obj 850 361 spigot 1;
#X obj 376 351 && 1;
#X obj 283 382 && 1;
#X connect 0 0 71 0;
#X connect 1 0 2 1;
#X connect 1 1 2 2;
#X connect 2 0 61 0;
#X connect 3 0 61 0;
#X connect 4 0 14 0;
#X connect 6 0 5 0;
#X connect 7 0 12 0;
#X connect 7 1 11 0;
#X connect 8 0 7 0;
#X connect 10 0 53 0;
#X connect 11 0 9 0;
#X connect 12 0 9 0;
#X connect 13 0 3 0;
#X connect 14 0 6 0;
#X connect 15 0 21 0;
#X connect 16 0 11 0;
#X connect 17 0 54 0;
#X connect 18 0 47 0;
#X connect 19 0 44 0;
#X connect 20 0 30 0;
#X connect 21 0 53 0;
#X connect 21 1 53 1;
#X connect 22 0 47 1;
#X connect 23 0 28 0;
#X connect 24 0 29 0;
#X connect 25 0 46 0;
#X connect 26 0 27 0;
#X connect 27 0 146 0;
#X connect 27 0 149 0;
#X connect 27 0 151 0;
#X connect 27 0 152 0;
#X connect 30 0 31 0;
#X connect 30 1 24 0;
#X connect 31 0 29 0;
#X connect 32 0 72 0;
#X connect 33 0 32 0;
#X connect 34 0 161 0;
#X connect 35 0 148 0;
#X connect 36 0 37 0;
#X connect 37 0 147 0;
#X connect 37 0 148 0;
#X connect 37 0 153 0;
#X connect 37 0 154 0;
#X connect 38 0 162 0;
#X connect 39 0 153 0;
#X connect 40 0 163 0;
#X connect 41 0 147 0;
#X connect 42 0 164 0;
#X connect 43 0 154 0;
#X connect 44 0 4 0;
#X connect 44 0 18 0;
#X connect 45 0 63 0;
#X connect 47 0 20 0;
#X connect 47 0 56 0;
#X connect 47 0 62 0;
#X connect 48 0 11 0;
#X connect 49 0 52 0;
#X connect 50 0 6 0;
#X connect 50 0 118 0;
#X connect 51 0 50 0;
#X connect 52 0 78 0;
#X connect 52 1 77 0;
#X connect 53 0 25 0;
#X connect 53 0 116 0;
#X connect 54 0 55 0;
#X connect 55 0 150 0;
#X connect 56 0 57 0;
#X connect 56 0 58 0;
#X connect 56 0 166 0;
#X connect 58 0 60 0;
#X connect 58 0 142 1;
#X connect 58 0 165 0;
#X connect 59 0 70 0;
#X connect 63 1 69 0;
#X connect 64 0 69 0;
#X connect 65 0 64 0;
#X connect 66 0 65 0;
#X connect 67 0 69 0;
#X connect 68 0 67 0;
#X connect 68 0 134 0;
#X connect 69 0 150 0;
#X connect 70 0 58 0;
#X connect 70 1 58 1;
#X connect 70 1 117 0;
#X connect 71 0 23 0;
#X connect 71 1 12 0;
#X connect 71 2 32 0;
#X connect 73 0 75 0;
#X connect 74 0 14 1;
#X connect 74 0 18 1;
#X connect 74 0 81 0;
#X connect 74 0 135 0;
#X connect 77 0 51 0;
#X connect 78 0 51 0;
#X connect 79 0 80 0;
#X connect 80 0 81 1;
#X connect 81 0 82 0;
#X connect 82 0 111 0;
#X connect 82 1 51 0;
#X connect 83 0 146 0;
#X connect 84 0 149 0;
#X connect 85 0 152 0;
#X connect 86 0 151 0;
#X connect 87 0 34 0;
#X connect 88 0 34 1;
#X connect 89 0 38 0;
#X connect 90 0 38 1;
#X connect 95 0 153 0;
#X connect 96 0 40 1;
#X connect 97 0 42 1;
#X connect 98 0 154 0;
#X connect 99 0 147 0;
#X connect 100 0 148 0;
#X connect 101 0 150 0;
#X connect 103 0 1 0;
#X connect 104 0 40 0;
#X connect 105 0 42 0;
#X connect 110 0 51 0;
#X connect 111 0 51 0;
#X connect 113 0 2 0;
#X connect 114 0 115 0;
#X connect 115 0 113 0;
#X connect 116 0 2 0;
#X connect 118 0 58 0;
#X connect 120 0 128 0;
#X connect 122 0 121 0;
#X connect 123 0 124 0;
#X connect 123 0 125 0;
#X connect 123 0 131 0;
#X connect 123 0 130 0;
#X connect 123 0 139 0;
#X connect 123 0 145 0;
#X connect 124 0 120 0;
#X connect 125 0 122 0;
#X connect 126 0 125 0;
#X connect 127 0 121 1;
#X connect 128 0 121 0;
#X connect 129 0 132 0;
#X connect 129 1 133 0;
#X connect 130 0 121 0;
#X connect 131 0 127 0;
#X connect 132 0 128 1;
#X connect 133 0 128 2;
#X connect 134 0 120 0;
#X connect 135 0 134 0;
#X connect 135 1 134 1;
#X connect 136 0 137 0;
#X connect 137 0 58 0;
#X connect 138 0 136 0;
#X connect 139 0 121 0;
#X connect 140 0 141 0;
#X connect 141 0 142 0;
#X connect 141 1 73 0;
#X connect 141 2 143 0;
#X connect 142 0 165 0;
#X connect 143 0 165 0;
#X connect 144 0 128 0;
#X connect 145 0 144 0;
#X connect 146 0 91 0;
#X connect 147 0 108 0;
#X connect 148 0 106 0;
#X connect 149 0 92 0;
#X connect 150 0 102 0;
#X connect 150 0 129 0;
#X connect 150 1 74 0;
#X connect 151 0 94 0;
#X connect 152 0 93 0;
#X connect 153 0 107 0;
#X connect 154 0 109 0;
#X connect 155 0 165 0;
#X connect 157 0 166 0;
#X connect 157 1 166 1;
#X connect 158 0 165 0;
#X connect 158 1 165 1;
#X connect 159 0 158 0;
#X connect 159 0 157 0;
#X connect 160 0 159 0;
#X connect 161 0 35 0;
#X connect 162 0 39 0;
#X connect 163 0 41 0;
#X connect 164 0 43 0;
#X connect 165 0 156 0;
#X connect 165 0 161 1;
#X connect 165 0 162 1;
#X connect 165 0 163 1;
#X connect 165 0 164 1;
#X connect 166 0 55 1;
#X coords 0 -1 1 1 140 15 1 10 200;
