#N canvas 360 119 887 550 10;
#X obj -25 7 inlet;
#X obj 213 351 unpack f f;
#X obj 32 450 sel 1;
#X obj 138 630 s select;
#X obj 137 604 f \$0;
#X obj -12 220 sel \$0;
#X obj -12 195 r select;
#X obj -4 299 s \$0-sel;
#X obj 311 0 r \$0-sel;
#X msg 27 258 0;
#X msg -15 256 1;
#X obj 142 578 spigot 0;
#X obj 368 3 r vertex_switch;
#X obj 46 224 r reset;
#X obj 19 514 &&;
#X obj 17 402 r gmouse;
#X obj 24 593 relativier;
#X obj 370 21 t b f;
#X obj 49 520 r \$0-sel;
#X obj 52 546 t b f;
#X msg -24 49 reset;
#X msg 339 71 sel \$1;
#X obj 208 82 r \$0-vert_set;
#X obj 208 106 t a;
#X obj -25 71 s \$0-vert_set;
#X obj 80 25 r \$0-curveset;
#X obj 461 613 outlet;
#X msg 360 659 set 1 1 \$1 \$2 0;
#X obj 359 683 s \$0-curveset;
#X obj 313 519 r \$0-vert_set;
#X obj 341 91 s \$0-vert_set;
#X msg 395 561 set \$1 \$2;
#X obj 27 571 && 0;
#X obj 47 204 loadbang;
#X obj 71 74 r \$0-sel;
#X obj 71 152 bng 12 250 50 0 empty empty empty 17 7 0 10 -261689 -1
-262144;
#X msg 71 131 color \$1;
#X obj 71 92 sel 0 1;
#X msg 71 112 3;
#X msg 99 112 2;
#X text 161 51 <<<<<<<<<;
#X obj 335 49 && 1;
#X obj 360 589 vertex 0 0;
#X obj -7 589 tgl 15 0 empty empty empty 17 7 0 10 -262144 -1 -1 0
1;
#X obj 313 541 route sel;
#X msg 481 683 lock \$1;
#X obj 480 663 == 0;
#X obj 478 639 r \$0-sel;
#X msg 546 658 sel \$1;
#X obj 548 637 r vertex_switch;
#X obj 451 633 t a;
#X obj -24 27 route reset sel;
#X obj 24 706 pytagoras;
#X obj 18 679 unpack f f;
#X floatatom 24 728 5 0 0 0 - - -;
#X obj 195 268 tgl 15 0 empty empty empty 17 7 0 10 -262144 -1 -1 0
1;
#X obj 131 257 r \$0-sel;
#X msg 120 224 draw line;
#X obj 120 205 loadbang;
#X obj 114 386 translateXYZ;
#X obj 125 347 gemhead 30;
#X msg 150 424 draw line;
#X obj 150 405 loadbang;
#X obj 121 450 circle 0.1;
#X obj 146 276 tgl 15 0 empty empty empty 17 7 0 10 -262144 -1 -1 0
1;
#X obj 128 325 &&;
#X obj 144 304 t b f;
#X obj 172 282 r vertex_switch;
#X msg 383 258 compat \$1;
#X obj 379 234 tgl 15 0 empty empty empty 17 7 0 10 -262144 -1 -1 0
1;
#X obj 379 133 == 0;
#X obj 379 155 t f f;
#X obj 379 177 sel 1;
#X msg 382 208 1 1 1;
#X msg 250 703 rel_mov \$1 \$2;
#X obj 162 668 route bang;
#X msg 158 696 rel_mov bang;
#X obj 157 725 s slave-vert_set;
#X obj 333 499 r slave-vert_set;
#X obj 17 423 route b1;
#X connect 0 0 51 0;
#X connect 1 0 59 1;
#X connect 1 1 59 2;
#X connect 2 0 11 0;
#X connect 4 0 3 0;
#X connect 5 0 10 0;
#X connect 5 1 9 0;
#X connect 6 0 5 0;
#X connect 8 0 41 0;
#X connect 9 0 7 0;
#X connect 10 0 7 0;
#X connect 11 0 4 0;
#X connect 12 0 17 0;
#X connect 12 0 70 0;
#X connect 13 0 9 0;
#X connect 14 0 32 0;
#X connect 15 0 79 0;
#X connect 16 0 53 0;
#X connect 16 0 75 0;
#X connect 17 0 41 0;
#X connect 17 1 41 1;
#X connect 18 0 19 0;
#X connect 19 1 32 1;
#X connect 20 0 24 0;
#X connect 21 0 30 0;
#X connect 22 0 23 0;
#X connect 27 0 28 0;
#X connect 29 0 44 0;
#X connect 31 0 42 0;
#X connect 32 0 16 0;
#X connect 32 0 43 0;
#X connect 33 0 9 0;
#X connect 34 0 37 0;
#X connect 35 0 4 0;
#X connect 36 0 35 0;
#X connect 37 0 38 0;
#X connect 37 1 39 0;
#X connect 38 0 36 0;
#X connect 39 0 36 0;
#X connect 41 0 21 0;
#X connect 41 0 55 0;
#X connect 42 0 27 0;
#X connect 42 0 1 0;
#X connect 42 0 26 0;
#X connect 42 1 14 1;
#X connect 42 1 11 1;
#X connect 44 1 42 0;
#X connect 45 0 50 0;
#X connect 46 0 45 0;
#X connect 47 0 46 0;
#X connect 48 0 50 0;
#X connect 49 0 48 0;
#X connect 50 0 42 0;
#X connect 51 0 20 0;
#X connect 51 1 10 0;
#X connect 51 2 31 0;
#X connect 52 0 54 0;
#X connect 53 0 52 0;
#X connect 53 1 52 1;
#X connect 56 0 64 0;
#X connect 56 0 65 0;
#X connect 57 0 63 0;
#X connect 58 0 57 0;
#X connect 59 0 63 0;
#X connect 60 0 59 0;
#X connect 61 0 63 0;
#X connect 62 0 61 0;
#X connect 65 0 60 0;
#X connect 66 0 65 0;
#X connect 66 1 65 1;
#X connect 67 0 66 0;
#X connect 69 0 68 0;
#X connect 70 0 71 0;
#X connect 71 0 72 0;
#X connect 72 0 73 0;
#X connect 74 0 77 0;
#X connect 75 0 76 0;
#X connect 75 1 74 0;
#X connect 76 0 77 0;
#X connect 78 0 44 0;
#X connect 79 0 2 0;
#X connect 79 0 14 0;
