#N canvas 520 0 498 798 10;
#X obj 148 466 f;
#X obj 178 16 inlet;
#X obj 283 730 outlet;
#X obj 179 72 t f f;
#X obj 267 557 tgl 15 0 empty empty empty 17 7 0 10 -262144 -1 -1 0
1;
#X obj 282 480 sel 0;
#X msg 233 519 1;
#X msg 282 503 0;
#X msg 230 114 clear \, \$1 \, all \, finish;
#X obj 71 353 route all clear dsel finish;
#X obj 210 594 f;
#X obj 210 640 sel 1;
#X msg 210 662 dsel;
#X obj 210 616 t f f;
#X obj 282 458 >=;
#X obj 264 640 change;
#X obj 230 164 s leadspace;
#X obj 143 688 s leadspace;
#X floatatom 216 399 5 0 0 0 - - -;
#X floatatom 123 79 5 0 0 0 - - -;
#X obj 56 240 r leadspace;
#X obj 317 638 < 0.3;
#X obj 283 709 &&;
#X obj 317 668 change;
#X obj 266 672 t b f;
#X obj 408 251 inlet;
#X obj 87 286 spigot 1;
#X obj 190 46 spigot 1;
#X connect 0 0 17 0;
#X connect 1 0 19 0;
#X connect 1 0 27 0;
#X connect 3 0 16 0;
#X connect 3 1 0 1;
#X connect 3 1 14 1;
#X connect 3 1 21 0;
#X connect 4 0 10 1;
#X connect 5 0 7 0;
#X connect 6 0 4 0;
#X connect 7 0 4 0;
#X connect 8 0 16 0;
#X connect 9 0 0 0;
#X connect 9 1 6 0;
#X connect 9 2 7 0;
#X connect 9 3 10 0;
#X connect 9 4 14 0;
#X connect 9 4 18 0;
#X connect 10 0 13 0;
#X connect 11 0 12 0;
#X connect 12 0 17 0;
#X connect 13 0 15 0;
#X connect 13 1 11 0;
#X connect 14 0 5 0;
#X connect 15 0 24 0;
#X connect 20 0 26 0;
#X connect 21 0 23 0;
#X connect 22 0 2 0;
#X connect 23 0 22 0;
#X connect 24 0 22 0;
#X connect 24 1 22 1;
#X connect 25 0 26 1;
#X connect 25 0 27 1;
#X connect 26 0 9 0;
#X connect 27 0 3 0;
