#N canvas 369 39 867 440 10;
#X obj 445 30 symbol \$1;
#X obj 448 -7 loadbang;
#X obj 409 7 bng 15 250 50 0 empty empty empty 17 7 0 10 -262144 -1
-1;
#X msg 447 52 \$1;
#X obj 436 275 cord_router;
#X obj 648 -7 loadbang;
#X obj 609 7 bng 15 250 50 0 empty empty empty 17 7 0 10 -262144 -1
-1;
#X msg 647 52 \$1;
#X obj 645 30 symbol \$2;
#X obj 410 209 inlet;
#X obj 563 352 outlet;
#X obj 490 86 route LH PH PD LD;
#X msg 489 118 1;
#X msg 521 119 2;
#X msg 554 125 3;
#X msg 587 132 4;
#X obj 527 175 t f;
#X obj 650 86 route LH PH PD LD;
#X msg 649 118 1;
#X msg 681 119 2;
#X msg 714 125 3;
#X msg 747 132 4;
#X obj 687 175 t f;
#X obj 576 275 cord_router;
#X obj 561 187 inlet;
#X obj 443 352 outlet;
#X connect 0 0 3 0;
#X connect 1 0 0 0;
#X connect 2 0 0 0;
#X connect 3 0 11 0;
#X connect 4 0 10 0;
#X connect 5 0 8 0;
#X connect 6 0 8 0;
#X connect 7 0 17 0;
#X connect 8 0 7 0;
#X connect 9 0 4 0;
#X connect 11 0 12 0;
#X connect 11 1 13 0;
#X connect 11 2 14 0;
#X connect 11 3 15 0;
#X connect 12 0 16 0;
#X connect 13 0 16 0;
#X connect 14 0 16 0;
#X connect 15 0 16 0;
#X connect 16 0 4 1;
#X connect 16 0 23 2;
#X connect 17 0 18 0;
#X connect 17 1 19 0;
#X connect 17 2 20 0;
#X connect 17 3 21 0;
#X connect 18 0 22 0;
#X connect 19 0 22 0;
#X connect 20 0 22 0;
#X connect 21 0 22 0;
#X connect 22 0 4 2;
#X connect 22 0 23 1;
#X connect 23 0 25 0;
#X connect 24 0 23 0;
