#N canvas 0 0 518 501 10;
#X obj 223 177 f;
#X obj 195 252 -;
#X obj 271 176 f;
#X obj 250 247 -;
#X obj 199 134 unpack f f;
#X obj 148 21 r gmouse;
#X obj 148 43 route position b1;
#X obj 324 37 inlet;
#X obj 324 68 sel 1;
#X obj 310 105 t b b;
#X obj 205 283 pack f f;
#X obj 216 412 outlet;
#X obj 145 211 spigot 0;
#X obj 249 217 spigot 0;
#X connect 0 0 1 1;
#X connect 1 0 10 0;
#X connect 2 0 3 1;
#X connect 3 0 10 1;
#X connect 4 0 0 1;
#X connect 4 0 12 0;
#X connect 4 1 2 1;
#X connect 4 1 13 0;
#X connect 5 0 6 0;
#X connect 6 0 4 0;
#X connect 7 0 8 0;
#X connect 7 0 12 1;
#X connect 7 0 13 1;
#X connect 8 0 9 0;
#X connect 8 0 11 0;
#X connect 9 0 0 0;
#X connect 9 1 2 0;
#X connect 10 0 11 0;
#X connect 12 0 1 0;
#X connect 13 0 3 0;
