#N canvas 873 168 816 716 10;
#X obj 93 569 inlet;
#X obj 139 614 curve3d 3 3;
#X obj 307 51 inlet;
#X obj 139 634 outlet;
#X obj 303 138 route 1 2 3 4 5 6 7 8 9;
#X msg 144 284 set 0 2 \$1 \$2 0;
#X msg 185 314 set 2 2 \$1 \$2 0;
#X msg 217 347 set 2 0 \$1 \$2 0;
#X msg 255 378 set 0 0 \$1 \$2 0;
#X msg 389 323 set 1 2 \$1 \$2 0;
#X msg 409 360 set 2 1 \$1 \$2 0;
#X msg 428 389 set 1 0 \$1 \$2 0;
#X msg 452 430 set 0 1 \$1 \$2 0;
#X msg 620 448 set 1 1 \$1 \$2 0;
#X obj 321 77 route \$1;
#X connect 0 0 1 0;
#X connect 1 0 3 0;
#X connect 2 0 14 0;
#X connect 4 0 5 0;
#X connect 4 1 6 0;
#X connect 4 2 7 0;
#X connect 4 3 8 0;
#X connect 4 4 9 0;
#X connect 4 5 10 0;
#X connect 4 6 11 0;
#X connect 4 7 12 0;
#X connect 4 8 13 0;
#X connect 5 0 1 0;
#X connect 6 0 1 0;
#X connect 7 0 1 0;
#X connect 8 0 1 0;
#X connect 9 0 1 0;
#X connect 10 0 1 0;
#X connect 11 0 1 0;
#X connect 12 0 1 0;
#X connect 13 0 1 0;
#X connect 14 0 4 0;
#X coords 0 0 1 1 80 13 0;
