#N canvas 313 314 757 532 10;
#X obj 108 43 inlet;
#X obj 241 3 inlet;
#X obj 100 191 unpack f f;
#X obj 238 106 unpack f f;
#X obj 290 230 -;
#X obj 203 232 -;
#X obj 207 371 +;
#X obj 283 378 +;
#X obj 277 327 * 0.5;
#X obj 188 319 * 0.5;
#X obj 296 135 t b f;
#X obj 211 137 t b f;
#X obj 244 451 pack f f;
#X obj 243 489 outlet;
#X obj 417 84 inlet;
#X obj 450 170 t b f;
#X obj 475 119 t f f;
#X obj 515 169 t b f;
#X obj 188 267 f;
#X obj 281 263 f;
#X obj 298 180 t a;
#X obj 201 177 t a;
#X connect 0 0 2 0;
#X connect 1 0 3 0;
#X connect 2 0 5 0;
#X connect 2 1 4 0;
#X connect 3 0 11 0;
#X connect 3 1 10 0;
#X connect 4 0 19 1;
#X connect 5 0 18 1;
#X connect 6 0 12 0;
#X connect 7 0 12 1;
#X connect 8 0 7 0;
#X connect 9 0 6 0;
#X connect 10 0 20 0;
#X connect 10 1 7 1;
#X connect 10 1 4 1;
#X connect 11 0 21 0;
#X connect 11 1 5 1;
#X connect 11 1 6 1;
#X connect 12 0 13 0;
#X connect 14 0 16 0;
#X connect 15 0 18 0;
#X connect 15 1 9 1;
#X connect 16 0 15 0;
#X connect 16 1 17 0;
#X connect 17 0 19 0;
#X connect 17 1 8 1;
#X connect 18 0 9 0;
#X connect 19 0 8 0;
#X connect 20 0 4 0;
#X connect 21 0 5 0;
