#N canvas 398 57 979 668 10;
#X floatatom 288 25 5 0 0 0 - - - 0;
#X floatatom 215 32 5 0 0 0 - - - 0;
#X obj 110 281 - 0;
#X obj 225 285 - 0;
#X obj 491 269 translateXYZ;
#X obj 170 191 spigot 0;
#X obj 292 185 spigot 0;
#X obj 139 139 t f f;
#X obj 236 138 t f f;
#X obj 393 153 tgl 15 0 empty empty empty 17 7 0 10 #fcfcfc #000000 #000000 0 1;
#X obj 268 457 outlet;
#X obj 59 58 loadbang;
#X obj 161 236 f \$1;
#X obj 292 231 f \$2;
#X obj 437 161 sel 0 1;
#X obj 366 65 t b f;
#X obj 23 126 r reset;
#X obj 22 212 f \$1;
#X obj 59 214 f \$2;
#X obj 26 175 t b b;
#X obj 486 315 circle 0.03;
#X obj 488 244 color 1 1 1;
#X obj 533 387 f \$1;
#X obj 575 328 loadbang;
#X obj 622 388 f \$2;
#X obj 511 598 curve 2;
#X obj 542 530 pack f f;
#X msg 545 556 \$1 \$2 0;
#X obj 628 525 pack f f;
#X msg 629 558 \$1 \$2 0;
#X obj 567 359 t b b;
#X obj 425 553 translateXYZ;
#X floatatom 372 299 5 0 0 0 - - - 0;
#X floatatom 505 429 5 0 0 0 - - - 0;
#X obj 647 482 * 0.5;
#X obj 558 484 * 0.5;
#X obj 640 333 bng 15 250 50 0 empty empty empty 17 7 0 10 #fcfcfc #000000 #000000;
#X obj 643 445 * 0.2;
#X obj 557 441 * 0.2;
#X obj 153 375 pytagoras;
#X floatatom 110 427 5 0 0 0 - - - 0;
#X obj 62 91 t b b;
#X obj 160 64 spigot 1;
#X obj 261 63 spigot 1;
#X obj 163 90 f \$1;
#X obj 260 94 f \$2;
#X obj 437 101 route float bang;
#X obj 482 137 t b b;
#X obj 216 -52 r gmouse;
#X obj 217 -1 unpack f f;
#X obj 216 -25 route position b1;
#N canvas 81 241 627 396 mover 0;
#X obj 104 215 +;
#X obj 161 215 +;
#X obj 126 111 unpack f f;
#X obj 99 260 pack f f;
#X obj 128 50 inlet;
#X obj 284 73 inlet;
#X obj 339 179 unpack f f;
#X obj 105 295 outlet;
#X obj 113 167 f;
#X obj 177 166 f;
#X obj 292 116 route bang list;
#X connect 0 0 3 0;
#X connect 1 0 3 1;
#X connect 2 0 8 1;
#X connect 2 1 9 1;
#X connect 3 0 7 0;
#X connect 4 0 2 0;
#X connect 5 0 10 0;
#X connect 6 0 0 0;
#X connect 6 1 1 0;
#X connect 8 0 0 1;
#X connect 9 0 1 1;
#X connect 10 0 9 0;
#X connect 10 0 8 0;
#X connect 10 1 6 0;
#X restore 184 592 pd mover;
#X obj 187 517 pack f f;
#X obj 184 620 unpack f f;
#X obj 290 125 unpack f f;
#X obj 283 553 r moveall;
#X obj 279 400 t b f;
#X obj 268 426 pack f f;
#X obj 561 28 t a;
#X obj 405 -16 inlet;
#X obj 390 116 && 0;
#X obj 444 29 t f;
#X obj 67 521 min_lead_elect;
#X obj 69 -18 loadbang;
#X obj 70 17 t b b;
#X obj 637 112 tgl 15 0 empty empty empty 17 7 0 10 #fcfcfc #000000 #000000 0 1;
#X obj 475 -19 route lock rel_mov sel set reset;
#X obj 406 8 == 0;
#X obj 348 19 spigot 1;
#X obj 789 290 outlet;
#X msg 551 176 0.045;
#X msg 531 205 0.03;
#X obj 662 136 loadbang;
#X msg 662 156 compat 0;
#X obj 555 120 gemhead -10;
#X obj 469 470 gemhead -10;
#X obj 33 287 loadbang;
#X connect 2 0 39 0;
#X connect 3 0 39 1;
#X connect 4 0 20 0;
#X connect 5 0 12 0;
#X connect 6 0 13 0;
#X connect 7 0 2 0;
#X connect 7 1 5 0;
#X connect 8 0 3 0;
#X connect 8 1 6 0;
#X connect 12 0 2 1;
#X connect 12 0 4 1;
#X connect 12 0 31 1;
#X connect 12 0 52 0;
#X connect 12 0 57 0;
#X connect 13 0 3 1;
#X connect 13 0 4 2;
#X connect 13 0 31 2;
#X connect 13 0 32 0;
#X connect 13 0 52 1;
#X connect 13 0 56 0;
#X connect 14 0 71 0;
#X connect 14 1 70 0;
#X connect 15 0 44 0;
#X connect 15 0 45 0;
#X connect 15 1 60 0;
#X connect 16 0 19 0;
#X connect 17 0 12 0;
#X connect 18 0 13 0;
#X connect 19 0 17 0;
#X connect 19 1 18 0;
#X connect 21 0 4 0;
#X connect 22 0 33 0;
#X connect 22 0 38 0;
#X connect 23 0 30 0;
#X connect 24 0 37 0;
#X connect 26 0 27 0;
#X connect 27 0 25 1;
#X connect 28 0 29 0;
#X connect 29 0 25 2;
#X connect 30 0 22 0;
#X connect 30 1 24 0;
#X connect 31 0 25 0;
#X connect 34 0 28 1;
#X connect 35 0 28 0;
#X connect 36 0 30 0;
#X connect 37 0 26 1;
#X connect 37 0 34 0;
#X connect 38 0 26 0;
#X connect 38 0 35 0;
#X connect 39 0 40 0;
#X connect 39 0 62 0;
#X connect 41 0 12 0;
#X connect 41 1 13 0;
#X connect 42 0 44 0;
#X connect 43 0 45 0;
#X connect 44 0 7 0;
#X connect 45 0 8 0;
#X connect 46 0 14 0;
#X connect 46 1 47 0;
#X connect 47 0 12 0;
#X connect 47 1 13 0;
#X connect 48 0 50 0;
#X connect 49 0 42 0;
#X connect 49 0 1 0;
#X connect 49 1 43 0;
#X connect 49 1 0 0;
#X connect 50 0 49 0;
#X connect 50 1 68 0;
#X connect 51 0 53 0;
#X connect 52 0 51 0;
#X connect 53 0 12 0;
#X connect 53 1 13 0;
#X connect 54 0 12 0;
#X connect 54 1 13 0;
#X connect 55 0 51 1;
#X connect 56 0 57 0;
#X connect 56 1 57 1;
#X connect 57 0 10 0;
#X connect 58 0 42 1;
#X connect 58 0 43 1;
#X connect 58 0 62 1;
#X connect 58 0 65 0;
#X connect 58 0 74 0;
#X connect 58 0 75 0;
#X connect 59 0 66 0;
#X connect 60 0 6 1;
#X connect 60 0 5 1;
#X connect 60 0 9 0;
#X connect 61 0 46 0;
#X connect 61 0 60 1;
#X connect 62 0 61 0;
#X connect 62 0 69 0;
#X connect 64 0 44 0;
#X connect 64 1 45 0;
#X connect 66 0 67 0;
#X connect 66 1 51 1;
#X connect 66 2 58 0;
#X connect 66 3 54 0;
#X connect 66 4 19 0;
#X connect 67 0 68 1;
#X connect 68 0 15 0;
#X connect 70 0 20 1;
#X connect 71 0 20 1;
#X connect 72 0 73 0;
#X connect 74 0 21 0;
#X connect 75 0 31 0;
#X connect 76 0 18 0;
#X connect 76 0 17 0;
