#N canvas 318 150 1118 569 10;
#X msg 59 61 0 \, destroy;
#X msg 10 -3 reset;
#X text 116 17 RUN;
#X msg 54 17 400 300;
#X msg 54 -2 800 600;
#X obj 24 101 gemwin;
#X text 181 72 MOUSE:;
#X msg 226 334 reset;
#X obj 120 167 s save_positions;
#X obj 120 132 bng 30 250 50 0 empty empty empty 17 7 0 10 -262144
-1 -1;
#X obj 215 251 gemhead 5;
#X obj 215 231 tgl 15 0 empty empty empty 17 7 0 10 -262144 -1 -1 1
1;
#X obj 157 127 bng 15 250 50 0 empty empty empty 17 7 0 10 -262144
-1 -1;
#X obj 157 146 s load_positions;
#X obj 61 82 r togemwin;
#X msg 54 38 dimen \$1 \$2 \, create \, 1;
#X text 371 216 IO:;
#X text 181 87 right button - select/move object;
#X obj 172 127 loadbang;
#N canvas 684 175 677 661 cursorcontrol 0;
#X obj 511 496 translateXYZ;
#X obj 156 183 s cur_pos_x;
#X obj 358 129 s cur_pos_y;
#X obj 510 519 circle 0.04;
#X obj 393 480 circle 0.08;
#X obj 390 452 translateXYZ;
#X obj 526 468 color 0 0 0;
#X obj 62 347 t b;
#X obj 56 537 change;
#X msg 52 427 1;
#X msg 86 427 0;
#X obj 259 27 gemmouse 1 1;
#X obj 234 211 pack f f;
#X obj 214 295 list append;
#X obj 233 242 t b l;
#X msg 213 272 position;
#X obj 321 295 list append;
#X msg 320 272 b1;
#X obj 335 210 t b f;
#X obj 288 107 expr ($f1*-2+1)*4;
#X obj 257 335 route list;
#X obj 257 578 s gmouse;
#X obj 468 351 r cur_pos_x;
#X obj 554 356 r cur_pos_y;
#X text 265 546 video_ext is dependent of this in case you want to
control cursor by mouse;
#X obj 408 294 list append;
#X obj 422 209 t b f;
#X msg 407 271 b2;
#X obj 520 291 list append;
#X obj 534 206 t b f;
#X msg 519 268 b3;
#X msg 249 386 clear;
#X obj 199 422 s leadspace;
#X msg 212 387 all;
#X msg 164 387 finish;
#X obj 199 357 t b b a b;
#X obj 266 485 spigot;
#X obj 280 441 r vertex_switch;
#X obj 34 243 ||;
#X obj 89 216 t b f;
#X obj 59 463 t b f;
#X obj 25 516 tgl 15 0 empty empty empty 17 7 0 10 -262144 -1 -1 0
1;
#X msg 61 500 1;
#X obj 26 495 ||;
#X obj 89 486 tgl 15 0 empty empty empty 17 7 0 10 -262144 -1 -1 0
1;
#X obj 44 301 tgl 15 0 empty empty empty 17 7 0 10 -262144 -1 -1 0
1;
#X obj 57 596 s vertex_switch;
#X obj 57 575 tgl 15 0 empty empty empty 17 7 0 10 -262144 -1 -1 0
1;
#X text 75 575 display help points;
#X obj 258 607 bng 15 250 50 0 empty empty empty 17 7 0 10 -262144
-1 -1;
#X obj 258 627 s reset;
#X text 309 627 reset all point coordinates;
#X obj 187 522 loadbang;
#X msg 187 542 1;
#X obj 495 61 loadbang;
#X obj 495 101 s togemwin;
#X msg 495 81 cursor 0;
#X obj 381 392 ortho;
#X obj 407 331 loadbang;
#X msg 420 346 compat 0;
#X obj 530 434 ortho;
#X obj 44 321 sel 1;
#X obj 71 404 delay 800;
#X obj 35 264 t f f;
#X obj 394 417 color 1 1 0;
#X obj 523 403 gemhead -11;
#X obj 385 359 gemhead -12;
#X obj 77 42 tgl 15 0 empty empty empty 17 7 0 10 -262144 -1 -1 0 1
;
#X obj 77 62 s skeleton;
#X obj 235 151 expr ($f1*2-1)*6.4;
#X connect 0 0 3 0;
#X connect 5 0 4 0;
#X connect 6 0 0 0;
#X connect 7 0 9 0;
#X connect 7 0 62 0;
#X connect 8 0 47 0;
#X connect 8 0 65 0;
#X connect 8 0 66 0;
#X connect 9 0 40 0;
#X connect 10 0 40 0;
#X connect 11 0 69 0;
#X connect 11 1 19 0;
#X connect 11 2 18 0;
#X connect 11 2 38 0;
#X connect 11 3 26 0;
#X connect 11 4 29 0;
#X connect 11 4 39 0;
#X connect 12 0 14 0;
#X connect 13 0 35 0;
#X connect 14 0 15 0;
#X connect 14 0 7 0;
#X connect 14 1 13 1;
#X connect 15 0 13 0;
#X connect 16 0 20 0;
#X connect 17 0 16 0;
#X connect 18 0 17 0;
#X connect 18 1 16 1;
#X connect 19 0 12 1;
#X connect 19 0 2 0;
#X connect 20 0 36 0;
#X connect 22 0 0 1;
#X connect 22 0 5 1;
#X connect 23 0 0 2;
#X connect 23 0 5 2;
#X connect 25 0 20 0;
#X connect 26 0 27 0;
#X connect 26 1 25 1;
#X connect 27 0 25 0;
#X connect 28 0 20 0;
#X connect 29 0 30 0;
#X connect 29 1 28 1;
#X connect 30 0 28 0;
#X connect 31 0 32 0;
#X connect 33 0 32 0;
#X connect 34 0 32 0;
#X connect 35 0 34 0;
#X connect 35 1 33 0;
#X connect 35 2 20 0;
#X connect 35 3 31 0;
#X connect 36 0 21 0;
#X connect 37 0 36 1;
#X connect 38 0 63 0;
#X connect 39 0 38 0;
#X connect 39 1 38 1;
#X connect 40 0 43 0;
#X connect 40 1 43 1;
#X connect 40 1 44 0;
#X connect 42 0 8 0;
#X connect 43 0 8 0;
#X connect 43 0 41 0;
#X connect 45 0 61 0;
#X connect 47 0 46 0;
#X connect 49 0 50 0;
#X connect 52 0 53 0;
#X connect 53 0 47 0;
#X connect 54 0 56 0;
#X connect 56 0 55 0;
#X connect 57 0 64 0;
#X connect 58 0 59 0;
#X connect 59 0 57 0;
#X connect 59 0 60 0;
#X connect 60 0 6 0;
#X connect 61 0 7 0;
#X connect 62 0 10 0;
#X connect 63 0 43 0;
#X connect 63 1 45 0;
#X connect 64 0 5 0;
#X connect 65 0 60 0;
#X connect 66 0 57 0;
#X connect 67 0 68 0;
#X connect 69 0 12 0;
#X connect 69 0 1 0;
#X restore 68 101 pd cursorcontrol;
#X msg 70 334 reset;
#X obj 59 251 gemhead 5;
#X obj 59 231 tgl 15 0 empty empty empty 17 7 0 10 -262144 -1 -1 0
1;
#X obj 215 360 map_rectangle asd;
#X obj 60 360 map_rectangle qwe;
#X msg 207 8 border 0 \, dimen 1280 800 \, offset 1440 0 \, create
\, 1;
#X obj 534 174 color 0 0 1;
#X obj 525 109 tgl 15 0 empty empty empty 17 7 0 10 -262144 -1 -1 0
1;
#X obj 412 301 metro 100;
#X obj 418 258 tgl 15 0 empty empty empty 17 7 0 10 -262144 -1 -1 1
1;
#X floatatom 412 399 8 0 0 0 - - -, f 8;
#X floatatom 472 255 5 0 0 0 - - -, f 5;
#X obj 534 152 gemhead 2;
#X msg 608 65 draw line \, width 10;
#X obj 534 196 rectangle 6.4 4;
#X floatatom 650 134 5 0 0 0 - - -, f 5;
#X obj 75 457 gemhead 5;
#X obj 77 511 map_rectangle zxc;
#X msg 194 441 reset;
#X obj 59 206 == 0;
#X obj 210 207 == 1;
#X obj 67 410 == 2;
#X obj 412 377 + 50;
#X obj 412 355 random 1000;
#X obj 392 135 random 64;
#X obj 392 157 / 10;
#X obj 471 188 random 40;
#X obj 471 210 / 10;
#X obj 245 457 gemhead 5;
#X obj 247 511 map_rectangle wer;
#X msg 336 453 reset;
#X obj 244 409 == 3;
#X obj 727 97 tgl 15 0 empty empty empty 17 7 0 10 -262144 -1 -1 0
1;
#X obj 736 140 gemhead 2;
#X obj 736 184 rectangle 6.4 4;
#X obj 813 40 gemhead 20;
#X obj 860 109 translateXYZ 0 0 0;
#X obj 866 232 curve 2;
#X msg 902 192 -7 0 0;
#X msg 942 222 7 0 0;
#X obj 950 56 line;
#X msg 954 14 4 \, -4.2 \$1;
#X obj 797 14 tgl 15 0 empty empty empty 17 7 0 10 -262144 -1 -1 0
1;
#X obj 72 435 tgl 15 0 empty empty empty 17 7 0 10 -262144 -1 -1 0
1;
#X obj 246 434 tgl 15 0 empty empty empty 17 7 0 10 -262144 -1 -1 0
1;
#X floatatom 510 360 5 0 0 0 - - -, f 5;
#X msg 509 447 0 \, 127 \$1;
#X obj 509 469 line;
#X obj 518 503 hsl 256 15 0 127 0 0 empty empty empty -2 -8 0 10 -262144
-1 -1 13248 1;
#X obj 381 325 t b;
#X obj 382 302 bng 15 250 50 0 empty empty empty 17 7 0 10 -262144
-1 -1;
#X floatatom 497 280 5 0 0 0 - - -, f 5;
#X obj 497 299 * 60000;
#X obj 510 379 * 60000;
#X obj 595 6 loadbang;
#X msg 595 28 0;
#X obj 406 434 urn 4;
#X obj 408 459 s rndstvorec;
#X obj 61 385 r rndstvorec;
#X obj 61 185 r rndstvorec;
#X floatatom 634 360 5 0 0 0 - - -, f 5;
#X floatatom 620 299 5 0 0 0 - - -, f 5;
#X obj 736 162 color 1 1 1;
#X obj 59 271 color 1 1 1;
#X obj 212 282 color 1 1 1;
#X obj 245 479 color 1 1 1;
#X obj 75 479 color 1 1 1;
#X obj 794 294 gemhead 20;
#X obj 794 316 gemframebuffer;
#X obj 794 338 translateXYZ 0 0 -4;
#X obj 802 412 text2d;
#X obj 966 315 gemhead 20;
#X obj 966 337 pix_texture;
#X obj 966 404 set_rectangle;
#X obj 675 412 route qwe;
#X msg 840 376 text imagine;
#X obj 967 439 set_rectangle;
#X obj 674 440 route asd;
#X obj 638 480 route zxc;
#X obj 962 494 set_rectangle;
#X obj 967 532 set_rectangle;
#X obj 808 524 route wer;
#X floatatom 701 315 5 0 0 0 - - -, f 5;
#X obj 958 269 tgl 15 0 empty empty empty 17 7 0 10 -262144 -1 -1 1
1;
#X connect 0 0 5 0;
#X connect 1 0 5 0;
#X connect 3 0 15 0;
#X connect 4 0 15 0;
#X connect 7 0 23 0;
#X connect 9 0 8 0;
#X connect 10 0 84 0;
#X connect 11 0 10 0;
#X connect 12 0 13 0;
#X connect 14 0 5 0;
#X connect 15 0 5 0;
#X connect 18 0 13 0;
#X connect 20 0 24 0;
#X connect 21 0 83 0;
#X connect 22 0 21 0;
#X connect 23 1 97 0;
#X connect 24 1 94 0;
#X connect 25 0 5 0;
#X connect 26 0 34 0;
#X connect 27 0 32 0;
#X connect 28 0 46 0;
#X connect 28 0 44 0;
#X connect 28 0 69 0;
#X connect 29 0 28 0;
#X connect 32 0 26 0;
#X connect 33 0 34 0;
#X connect 35 0 34 1;
#X connect 36 0 86 0;
#X connect 37 1 98 0;
#X connect 38 0 37 0;
#X connect 39 0 22 0;
#X connect 40 0 11 0;
#X connect 41 0 63 0;
#X connect 42 0 28 1;
#X connect 42 0 30 0;
#X connect 42 0 61 0;
#X connect 42 0 66 0;
#X connect 43 0 42 0;
#X connect 44 0 45 0;
#X connect 45 0 34 1;
#X connect 46 0 47 0;
#X connect 47 0 34 2;
#X connect 48 0 85 0;
#X connect 49 1 101 0;
#X connect 50 0 49 0;
#X connect 51 0 64 0;
#X connect 52 0 53 0;
#X connect 53 0 82 0;
#X connect 55 0 56 0;
#X connect 56 0 57 0;
#X connect 58 0 57 1;
#X connect 59 0 57 2;
#X connect 60 0 56 2;
#X connect 61 0 60 0;
#X connect 62 0 55 0;
#X connect 63 0 36 0;
#X connect 64 0 48 0;
#X connect 65 0 73 0;
#X connect 66 0 67 0;
#X connect 67 0 68 0;
#X connect 69 0 43 0;
#X connect 69 0 76 0;
#X connect 70 0 69 0;
#X connect 71 0 72 0;
#X connect 72 0 43 1;
#X connect 73 0 42 1;
#X connect 74 0 75 0;
#X connect 75 0 27 0;
#X connect 75 0 62 0;
#X connect 75 0 52 0;
#X connect 76 0 77 0;
#X connect 78 0 41 0;
#X connect 78 0 51 0;
#X connect 79 0 39 0;
#X connect 79 0 40 0;
#X connect 80 0 42 1;
#X connect 81 0 43 1;
#X connect 82 0 54 0;
#X connect 83 0 24 0;
#X connect 84 0 23 0;
#X connect 85 0 49 0;
#X connect 86 0 37 0;
#X connect 87 0 88 0;
#X connect 88 0 89 0;
#X connect 88 1 92 1;
#X connect 89 0 90 0;
#X connect 91 0 92 0;
#X connect 92 0 93 0;
#X connect 93 0 96 0;
#X connect 94 0 93 1;
#X connect 95 0 90 0;
#X connect 96 0 99 0;
#X connect 97 0 96 1;
#X connect 98 0 99 1;
#X connect 99 0 100 0;
#X connect 101 0 100 1;
#X connect 102 0 90 1;
#X connect 103 0 91 0;
